<svg xmlns="http://www.w3.org/2000/svg" width="800" height="600" viewBox="0 0 800 600">
  <defs>
    <linearGradient id="bg" x1="0" y1="0" x2="1" y2="1">
      <stop offset="0%" stop-color="#1a0533"/>
      <stop offset="50%" stop-color="#2d0a5e"/>
      <stop offset="100%" stop-color="#1a0533"/>
    </linearGradient>
    <linearGradient id="titleGrad" x1="0" y1="0" x2="1" y2="0">
      <stop offset="0%" stop-color="#ffd700"/>
      <stop offset="50%" stop-color="#ffffff"/>
      <stop offset="100%" stop-color="#ff8c00"/>
    </linearGradient>
    <linearGradient id="boardBg" x1="0" y1="0" x2="0" y2="1">
      <stop offset="0%" stop-color="#3d1278"/>
      <stop offset="100%" stop-color="#5a1fa0"/>
    </linearGradient>
    <filter id="glow">
      <feGaussianBlur stdDeviation="6" result="blur"/>
      <feMerge><feMergeNode in="blur"/><feMergeNode in="SourceGraphic"/></feMerge>
    </filter>
    <filter id="titleGlow">
      <feGaussianBlur stdDeviation="12" result="blur"/>
      <feMerge><feMergeNode in="blur"/><feMergeNode in="SourceGraphic"/></feMerge>
    </filter>
  </defs>

  <!-- 背景 -->
  <rect width="800" height="600" fill="url(#bg)"/>

  <!-- 星星 -->
  <circle cx="42" cy="38" r="1.5" fill="white" opacity="0.8"/>
  <circle cx="120" cy="75" r="1" fill="white" opacity="0.6"/>
  <circle cx="200" cy="22" r="2" fill="white" opacity="0.9"/>
  <circle cx="310" cy="55" r="1" fill="white" opacity="0.7"/>
  <circle cx="450" cy="18" r="1.5" fill="white" opacity="0.8"/>
  <circle cx="560" cy="42" r="1" fill="white" opacity="0.6"/>
  <circle cx="650" cy="28" r="2" fill="white" opacity="0.9"/>
  <circle cx="730" cy="65" r="1" fill="white" opacity="0.7"/>
  <circle cx="780" cy="30" r="1.5" fill="white" opacity="0.8"/>
  <circle cx="85" cy="150" r="1" fill="white" opacity="0.5"/>
  <circle cx="170" cy="180" r="1.5" fill="white" opacity="0.7"/>
  <circle cx="700" cy="120" r="1" fill="white" opacity="0.6"/>
  <circle cx="760" cy="160" r="2" fill="white" opacity="0.8"/>
  <circle cx="30" cy="300" r="1" fill="white" opacity="0.5"/>
  <circle cx="770" cy="280" r="1.5" fill="white" opacity="0.7"/>
  <circle cx="50" cy="450" r="1" fill="white" opacity="0.6"/>
  <circle cx="750" cy="420" r="1.5" fill="white" opacity="0.8"/>
  <circle cx="100" cy="530" r="1" fill="white" opacity="0.5"/>
  <circle cx="680" cy="510" r="2" fill="white" opacity="0.7"/>
  <circle cx="380" cy="570" r="1" fill="white" opacity="0.6"/>
  <circle cx="250" cy="540" r="1.5" fill="white" opacity="0.8"/>
  <circle cx="520" cy="555" r="1" fill="white" opacity="0.5"/>

  <!-- 装饰边框 -->
  <rect x="12" y="12" width="776" height="576" rx="18" fill="none" stroke="#ffd700" stroke-width="2.5" opacity="0.4" filter="url(#glow)"/>

  <!-- 棋盘背景 -->
  <rect x="160" y="250" width="480" height="240" rx="18" fill="url(#boardBg)" opacity="0.85" stroke="rgba(255,255,255,0.25)" stroke-width="2"/>

  <!-- 棋盘格子 + emoji -->
  <!-- Row 1 -->
  <rect x="175" y="262" width="58" height="58" rx="10" fill="rgba(255,255,255,0.08)" stroke="rgba(255,255,255,0.15)" stroke-width="1"/>
  <text x="204" y="302" font-size="36" text-anchor="middle" font-family="serif">🍭</text>

  <rect x="241" y="262" width="58" height="58" rx="10" fill="rgba(255,255,255,0.08)" stroke="rgba(255,255,255,0.15)" stroke-width="1"/>
  <text x="270" y="302" font-size="36" text-anchor="middle" font-family="serif">🍬</text>

  <rect x="307" y="262" width="58" height="58" rx="10" fill="rgba(255,255,255,0.08)" stroke="rgba(255,255,255,0.15)" stroke-width="1"/>
  <text x="336" y="302" font-size="36" text-anchor="middle" font-family="serif">🍫</text>

  <rect x="373" y="262" width="58" height="58" rx="10" fill="rgba(255,255,255,0.08)" stroke="rgba(255,255,255,0.15)" stroke-width="1"/>
  <text x="402" y="302" font-size="36" text-anchor="middle" font-family="serif">🍩</text>

  <rect x="439" y="262" width="58" height="58" rx="10" fill="rgba(255,255,255,0.08)" stroke="rgba(255,255,255,0.15)" stroke-width="1"/>
  <text x="468" y="302" font-size="36" text-anchor="middle" font-family="serif">🎂</text>

  <rect x="505" y="262" width="58" height="58" rx="10" fill="rgba(255,255,255,0.08)" stroke="rgba(255,255,255,0.15)" stroke-width="1"/>
  <text x="534" y="302" font-size="36" text-anchor="middle" font-family="serif">🍰</text>

  <rect x="571" y="262" width="58" height="58" rx="10" fill="rgba(255,255,255,0.08)" stroke="rgba(255,255,255,0.15)" stroke-width="1"/>
  <text x="600" y="302" font-size="36" text-anchor="middle" font-family="serif">🧁</text>

  <!-- Row 2 -->
  <rect x="175" y="328" width="58" height="58" rx="10" fill="rgba(255,255,255,0.08)" stroke="rgba(255,255,255,0.15)" stroke-width="1"/>
  <text x="204" y="368" font-size="36" text-anchor="middle" font-family="serif">🍫</text>

  <rect x="241" y="328" width="58" height="58" rx="10" fill="rgba(255,255,255,0.08)" stroke="rgba(255,255,255,0.15)" stroke-width="1"/>
  <text x="270" y="368" font-size="36" text-anchor="middle" font-family="serif">🍭</text>

  <rect x="307" y="328" width="58" height="58" rx="10" fill="rgba(255,255,255,0.12)" stroke="#ffd700" stroke-width="2"/>
  <text x="336" y="368" font-size="36" text-anchor="middle" font-family="serif">🍭</text>

  <rect x="373" y="328" width="58" height="58" rx="10" fill="rgba(255,255,255,0.12)" stroke="#ffd700" stroke-width="2"/>
  <text x="402" y="368" font-size="36" text-anchor="middle" font-family="serif">🍭</text>

  <rect x="439" y="328" width="58" height="58" rx="10" fill="rgba(255,255,255,0.08)" stroke="rgba(255,255,255,0.15)" stroke-width="1"/>
  <text x="468" y="368" font-size="36" text-anchor="middle" font-family="serif">🍩</text>

  <rect x="505" y="328" width="58" height="58" rx="10" fill="rgba(255,255,255,0.08)" stroke="rgba(255,255,255,0.15)" stroke-width="1"/>
  <text x="534" y="368" font-size="36" text-anchor="middle" font-family="serif">🎂</text>

  <rect x="571" y="328" width="58" height="58" rx="10" fill="rgba(255,255,255,0.08)" stroke="rgba(255,255,255,0.15)" stroke-width="1"/>
  <text x="600" y="368" font-size="36" text-anchor="middle" font-family="serif">🍬</text>

  <!-- Row 3 -->
  <rect x="175" y="394" width="58" height="58" rx="10" fill="rgba(255,255,255,0.08)" stroke="rgba(255,255,255,0.15)" stroke-width="1"/>
  <text x="204" y="434" font-size="36" text-anchor="middle" font-family="serif">🍰</text>

  <rect x="241" y="394" width="58" height="58" rx="10" fill="rgba(255,255,255,0.08)" stroke="rgba(255,255,255,0.15)" stroke-width="1"/>
  <text x="270" y="434" font-size="36" text-anchor="middle" font-family="serif">🧁</text>

  <rect x="307" y="394" width="58" height="58" rx="10" fill="rgba(255,255,255,0.08)" stroke="rgba(255,255,255,0.15)" stroke-width="1"/>
  <text x="336" y="434" font-size="36" text-anchor="middle" font-family="serif">🍩</text>

  <rect x="373" y="394" width="58" height="58" rx="10" fill="rgba(255,255,255,0.08)" stroke="rgba(255,255,255,0.15)" stroke-width="1"/>
  <text x="402" y="434" font-size="36" text-anchor="middle" font-family="serif">🍬</text>

  <rect x="439" y="394" width="58" height="58" rx="10" fill="rgba(255,255,255,0.08)" stroke="rgba(255,255,255,0.15)" stroke-width="1"/>
  <text x="468" y="434" font-size="36" text-anchor="middle" font-family="serif">🍫</text>

  <rect x="505" y="394" width="58" height="58" rx="10" fill="rgba(255,255,255,0.08)" stroke="rgba(255,255,255,0.15)" stroke-width="1"/>
  <text x="534" y="434" font-size="36" text-anchor="middle" font-family="serif">🍭</text>

  <rect x="571" y="394" width="58" height="58" rx="10" fill="rgba(255,255,255,0.08)" stroke="rgba(255,255,255,0.15)" stroke-width="1"/>
  <text x="600" y="434" font-size="36" text-anchor="middle" font-family="serif">🎂</text>

  <!-- 消除特效光圈 -->
  <circle cx="336" cy="348" r="34" fill="none" stroke="#ffd700" stroke-width="2.5" opacity="0.6" filter="url(#glow)"/>
  <circle cx="402" cy="348" r="34" fill="none" stroke="#ffd700" stroke-width="2.5" opacity="0.6" filter="url(#glow)"/>

  <!-- 标题 -->
  <text x="400" y="145" font-size="90" font-weight="bold" font-family="Arial, sans-serif"
    text-anchor="middle" fill="url(#titleGrad)" filter="url(#titleGlow)">消消乐</text>

  <!-- 副标题 -->
  <text x="400" y="205" font-size="28" font-weight="bold" font-family="Arial, sans-serif"
    text-anchor="middle" fill="rgba(255,255,255,0.85)" letter-spacing="4">🍬 糖果消消乐 🍬</text>

  <!-- 底部说明 -->
  <text x="400" y="558" font-size="20" font-family="Arial, sans-serif"
    text-anchor="middle" fill="rgba(255,255,255,0.55)">交换相邻糖果 · 凑成3连消除 · 无限关卡挑战</text>
</svg>
